<mxfile host="65bd71144e">
    <diagram id="WgXdRD97kDLHCrSQrZQy" name="Página-1">
        <mxGraphModel dx="785" dy="443" grid="1" gridSize="10" guides="1" tooltips="1" connect="1" arrows="1" fold="1" page="1" pageScale="1" pageWidth="827" pageHeight="1169" math="0" shadow="0">
            <root>
                <mxCell id="0"/>
                <mxCell id="1" parent="0"/>
                <mxCell id="2" value="Socios" style="rounded=0;whiteSpace=wrap;html=1;" vertex="1" parent="1">
                    <mxGeometry x="280" y="40" width="160" height="80" as="geometry"/>
                </mxCell>
                <mxCell id="3" value="Libros" style="rounded=0;whiteSpace=wrap;html=1;" vertex="1" parent="1">
                    <mxGeometry x="520" y="680" width="160" height="80" as="geometry"/>
                </mxCell>
                <mxCell id="4" value="Copias de libros" style="rounded=0;whiteSpace=wrap;html=1;" vertex="1" parent="1">
                    <mxGeometry x="520" y="440" width="160" height="80" as="geometry"/>
                </mxCell>
                <mxCell id="195" style="edgeStyle=none;html=1;endArrow=oval;endFill=1;startSize=6;endSize=6;elbow=vertical;" edge="1" parent="1">
                    <mxGeometry relative="1" as="geometry">
                        <mxPoint x="260" y="280" as="targetPoint"/>
                        <mxPoint x="360" y="140" as="sourcePoint"/>
                        <Array as="points">
                            <mxPoint x="260" y="140"/>
                        </Array>
                    </mxGeometry>
                </mxCell>
                <mxCell id="5" value="Préstamos" style="rounded=0;whiteSpace=wrap;html=1;" vertex="1" parent="1">
                    <mxGeometry x="280" y="280" width="160" height="80" as="geometry"/>
                </mxCell>
                <mxCell id="152" style="html=1;labelBorderColor=none;strokeWidth=1;endArrow=oval;endFill=1;endSize=6;targetPerimeterSpacing=0;align=left;elbow=vertical;exitX=0;exitY=0;exitDx=0;exitDy=0;entryX=1;entryY=0.5;entryDx=0;entryDy=0;" edge="1" target="153" parent="1" source="2">
                    <mxGeometry relative="1" as="geometry">
                        <mxPoint x="50" y="40" as="sourcePoint"/>
                        <mxPoint x="200" y="50" as="targetPoint"/>
                    </mxGeometry>
                </mxCell>
                <mxCell id="153" value="DNI" style="text;html=1;strokeColor=none;fillColor=none;align=left;verticalAlign=middle;whiteSpace=wrap;rounded=0;container=0;spacingLeft=8;labelBackgroundColor=none;" vertex="1" parent="1">
                    <mxGeometry x="110" y="30" width="80" height="20" as="geometry"/>
                </mxCell>
                <mxCell id="154" style="html=1;labelBorderColor=none;strokeWidth=1;endArrow=oval;endFill=0;endSize=6;targetPerimeterSpacing=0;align=left;elbow=vertical;exitX=0;exitY=0.25;exitDx=0;exitDy=0;entryX=1;entryY=0.5;entryDx=0;entryDy=0;" edge="1" target="155" parent="1" source="2">
                    <mxGeometry relative="1" as="geometry">
                        <mxPoint x="50" y="60" as="sourcePoint"/>
                    </mxGeometry>
                </mxCell>
                <mxCell id="155" value="Apellido" style="text;html=1;strokeColor=none;fillColor=none;align=left;verticalAlign=middle;whiteSpace=wrap;rounded=0;container=0;spacingLeft=8;labelBackgroundColor=none;" vertex="1" parent="1">
                    <mxGeometry x="110" y="50" width="80" height="20" as="geometry"/>
                </mxCell>
                <mxCell id="156" style="html=1;labelBorderColor=none;strokeWidth=1;endArrow=oval;endFill=0;endSize=6;targetPerimeterSpacing=0;align=left;elbow=vertical;exitX=0;exitY=0.5;exitDx=0;exitDy=0;entryX=1;entryY=0.5;entryDx=0;entryDy=0;" edge="1" target="157" parent="1" source="2">
                    <mxGeometry relative="1" as="geometry">
                        <mxPoint x="50" y="80" as="sourcePoint"/>
                    </mxGeometry>
                </mxCell>
                <mxCell id="157" value="Nombre" style="text;html=1;strokeColor=none;fillColor=none;align=left;verticalAlign=middle;whiteSpace=wrap;rounded=0;container=0;spacingLeft=8;labelBackgroundColor=none;" vertex="1" parent="1">
                    <mxGeometry x="110" y="70" width="80" height="20" as="geometry"/>
                </mxCell>
                <mxCell id="158" style="html=1;labelBorderColor=none;strokeWidth=1;endArrow=oval;endFill=0;endSize=6;targetPerimeterSpacing=0;align=left;elbow=vertical;exitX=0;exitY=0.75;exitDx=0;exitDy=0;entryX=1;entryY=0.5;entryDx=0;entryDy=0;" edge="1" target="159" parent="1" source="2">
                    <mxGeometry relative="1" as="geometry">
                        <mxPoint x="50" y="100" as="sourcePoint"/>
                    </mxGeometry>
                </mxCell>
                <mxCell id="159" value="Fecha de nacimiento" style="text;html=1;strokeColor=none;fillColor=none;align=left;verticalAlign=middle;whiteSpace=wrap;rounded=0;container=0;spacingLeft=8;labelBackgroundColor=none;" vertex="1" parent="1">
                    <mxGeometry x="60" y="90" width="130" height="20" as="geometry"/>
                </mxCell>
                <mxCell id="160" style="html=1;labelBorderColor=none;strokeWidth=1;endArrow=oval;endFill=0;endSize=6;targetPerimeterSpacing=0;align=left;elbow=vertical;entryX=1;entryY=0.5;entryDx=0;entryDy=0;" edge="1" target="161" parent="1">
                    <mxGeometry relative="1" as="geometry">
                        <mxPoint x="280" y="120" as="sourcePoint"/>
                    </mxGeometry>
                </mxCell>
                <mxCell id="161" value="Dirección" style="text;html=1;strokeColor=none;fillColor=none;align=left;verticalAlign=middle;whiteSpace=wrap;rounded=0;container=0;spacingLeft=8;labelBackgroundColor=none;" vertex="1" parent="1">
                    <mxGeometry x="110" y="110" width="80" height="20" as="geometry"/>
                </mxCell>
                <mxCell id="162" style="html=1;labelBorderColor=none;strokeWidth=1;endArrow=oval;endFill=1;endSize=6;targetPerimeterSpacing=0;align=left;elbow=vertical;exitX=1;exitY=0;exitDx=0;exitDy=0;" edge="1" target="163" parent="1" source="3">
                    <mxGeometry relative="1" as="geometry">
                        <mxPoint x="630" y="680" as="sourcePoint"/>
                    </mxGeometry>
                </mxCell>
                <mxCell id="163" value="ISBN" style="text;html=1;strokeColor=none;fillColor=none;align=left;verticalAlign=middle;whiteSpace=wrap;rounded=0;container=0;spacingLeft=8;labelBackgroundColor=none;" vertex="1" parent="1">
                    <mxGeometry x="700" y="670" width="80" height="20" as="geometry"/>
                </mxCell>
                <mxCell id="164" style="html=1;labelBorderColor=none;strokeWidth=1;endArrow=oval;endFill=0;endSize=6;targetPerimeterSpacing=0;align=left;elbow=vertical;exitX=1;exitY=0.5;exitDx=0;exitDy=0;" edge="1" target="165" parent="1" source="3">
                    <mxGeometry relative="1" as="geometry">
                        <mxPoint x="640" y="700" as="sourcePoint"/>
                    </mxGeometry>
                </mxCell>
                <mxCell id="165" value="Descripción" style="text;html=1;strokeColor=none;fillColor=none;align=left;verticalAlign=middle;whiteSpace=wrap;rounded=0;container=0;spacingLeft=8;labelBackgroundColor=none;" vertex="1" parent="1">
                    <mxGeometry x="700" y="710" width="80" height="20" as="geometry"/>
                </mxCell>
                <mxCell id="166" style="html=1;labelBorderColor=none;strokeWidth=1;endArrow=oval;endFill=0;endSize=6;targetPerimeterSpacing=0;align=left;elbow=vertical;exitX=1;exitY=0.75;exitDx=0;exitDy=0;" edge="1" target="167" parent="1" source="3">
                    <mxGeometry relative="1" as="geometry">
                        <mxPoint x="620" y="710" as="sourcePoint"/>
                    </mxGeometry>
                </mxCell>
                <mxCell id="167" value="Género" style="text;html=1;strokeColor=none;fillColor=none;align=left;verticalAlign=middle;whiteSpace=wrap;rounded=0;container=0;spacingLeft=8;labelBackgroundColor=none;" vertex="1" parent="1">
                    <mxGeometry x="700" y="730" width="80" height="20" as="geometry"/>
                </mxCell>
                <mxCell id="168" style="html=1;labelBorderColor=none;strokeWidth=1;endArrow=oval;endFill=0;endSize=6;targetPerimeterSpacing=0;align=left;elbow=vertical;exitX=1;exitY=1;exitDx=0;exitDy=0;" edge="1" target="169" parent="1" source="3">
                    <mxGeometry relative="1" as="geometry">
                        <mxPoint x="700" y="740" as="sourcePoint"/>
                    </mxGeometry>
                </mxCell>
                <mxCell id="169" value="Año de edición" style="text;html=1;strokeColor=none;fillColor=none;align=left;verticalAlign=middle;whiteSpace=wrap;rounded=0;container=0;spacingLeft=8;labelBackgroundColor=none;" vertex="1" parent="1">
                    <mxGeometry x="700" y="750" width="100" height="20" as="geometry"/>
                </mxCell>
                <mxCell id="187" value="" style="edgeStyle=none;html=1;endArrow=none;endFill=0;startSize=6;endSize=6;elbow=vertical;" edge="1" parent="1" source="183" target="2">
                    <mxGeometry relative="1" as="geometry"/>
                </mxCell>
                <mxCell id="188" value="" style="edgeStyle=none;html=1;endArrow=none;endFill=0;startSize=6;endSize=6;elbow=vertical;" edge="1" parent="1" source="183" target="5">
                    <mxGeometry relative="1" as="geometry"/>
                </mxCell>
                <mxCell id="183" value="Solicitan" style="rhombus;whiteSpace=wrap;html=1;labelBackgroundColor=none;" vertex="1" parent="1">
                    <mxGeometry x="280" y="160" width="160" height="80" as="geometry"/>
                </mxCell>
                <mxCell id="189" value="(0, n)" style="text;html=1;strokeColor=none;fillColor=none;align=center;verticalAlign=middle;whiteSpace=wrap;rounded=0;labelBackgroundColor=none;" vertex="1" parent="1">
                    <mxGeometry x="310" y="130" width="40" height="20" as="geometry"/>
                </mxCell>
                <mxCell id="190" value="(1, 1)" style="text;html=1;strokeColor=none;fillColor=none;align=center;verticalAlign=middle;whiteSpace=wrap;rounded=0;labelBackgroundColor=none;" vertex="1" parent="1">
                    <mxGeometry x="310" y="250" width="40" height="20" as="geometry"/>
                </mxCell>
                <mxCell id="191" style="html=1;labelBorderColor=none;strokeWidth=1;endArrow=oval;endFill=0;endSize=6;targetPerimeterSpacing=0;align=left;elbow=vertical;exitX=0;exitY=0;exitDx=0;exitDy=0;entryX=1;entryY=0.5;entryDx=0;entryDy=0;" edge="1" target="192" parent="1" source="5">
                    <mxGeometry relative="1" as="geometry">
                        <mxPoint x="100" y="280" as="sourcePoint"/>
                        <mxPoint x="160" y="280" as="targetPoint"/>
                    </mxGeometry>
                </mxCell>
                <mxCell id="192" value="Fecha" style="text;html=1;strokeColor=none;fillColor=none;align=left;verticalAlign=middle;whiteSpace=wrap;rounded=0;container=0;spacingLeft=8;labelBackgroundColor=none;" vertex="1" parent="1">
                    <mxGeometry x="180" y="270" width="60" height="20" as="geometry"/>
                </mxCell>
                <mxCell id="193" style="html=1;labelBorderColor=none;strokeWidth=1;endArrow=oval;endFill=0;endSize=6;targetPerimeterSpacing=0;align=left;elbow=vertical;exitX=0;exitY=0.25;exitDx=0;exitDy=0;entryX=1;entryY=0.5;entryDx=0;entryDy=0;" edge="1" target="194" parent="1" source="5">
                    <mxGeometry relative="1" as="geometry">
                        <mxPoint x="100" y="300" as="sourcePoint"/>
                        <mxPoint x="160" y="300" as="targetPoint"/>
                    </mxGeometry>
                </mxCell>
                <mxCell id="194" value="Hora" style="text;html=1;strokeColor=none;fillColor=none;align=left;verticalAlign=middle;whiteSpace=wrap;rounded=0;container=0;spacingLeft=8;labelBackgroundColor=none;" vertex="1" parent="1">
                    <mxGeometry x="180" y="290" width="60" height="20" as="geometry"/>
                </mxCell>
                <mxCell id="204" value="" style="group" vertex="1" connectable="0" parent="1">
                    <mxGeometry x="260" y="280" height="40" as="geometry"/>
                </mxCell>
                <mxCell id="197" style="edgeStyle=none;html=1;endArrow=oval;endFill=1;startSize=6;endSize=6;elbow=vertical;" edge="1" parent="204">
                    <mxGeometry relative="1" as="geometry">
                        <mxPoint y="20" as="targetPoint"/>
                        <mxPoint as="sourcePoint"/>
                    </mxGeometry>
                </mxCell>
                <mxCell id="198" style="edgeStyle=none;html=1;endArrow=oval;endFill=1;startSize=6;endSize=6;elbow=vertical;" edge="1" parent="204">
                    <mxGeometry relative="1" as="geometry">
                        <mxPoint y="40" as="targetPoint"/>
                        <mxPoint y="20" as="sourcePoint"/>
                    </mxGeometry>
                </mxCell>
                <mxCell id="207" value="" style="edgeStyle=none;html=1;endArrow=oval;endFill=1;startSize=6;endSize=6;elbow=vertical;" edge="1" parent="1" source="206" target="4">
                    <mxGeometry relative="1" as="geometry"/>
                </mxCell>
                <mxCell id="208" value="" style="edgeStyle=none;html=1;endArrow=oval;endFill=1;startSize=6;endSize=6;elbow=vertical;" edge="1" parent="1" source="206" target="5">
                    <mxGeometry relative="1" as="geometry"/>
                </mxCell>
                <mxCell id="206" value="Entregan" style="rhombus;whiteSpace=wrap;html=1;labelBackgroundColor=none;" vertex="1" parent="1">
                    <mxGeometry x="280" y="440" width="160" height="80" as="geometry"/>
                </mxCell>
                <mxCell id="210" value="" style="edgeStyle=none;html=1;endArrow=oval;endFill=1;startSize=6;endSize=6;elbow=vertical;" edge="1" parent="1" source="209" target="4">
                    <mxGeometry relative="1" as="geometry"/>
                </mxCell>
                <mxCell id="211" value="" style="edgeStyle=none;html=1;endArrow=oval;endFill=1;startSize=6;endSize=6;elbow=vertical;" edge="1" parent="1" source="209" target="3">
                    <mxGeometry relative="1" as="geometry"/>
                </mxCell>
                <mxCell id="209" value="corresponde_a" style="rhombus;whiteSpace=wrap;html=1;labelBackgroundColor=none;" vertex="1" parent="1">
                    <mxGeometry x="520" y="560" width="160" height="80" as="geometry"/>
                </mxCell>
                <mxCell id="212" value="(1, 1)" style="text;html=1;strokeColor=none;fillColor=none;align=center;verticalAlign=middle;whiteSpace=wrap;rounded=0;labelBackgroundColor=none;" vertex="1" parent="1">
                    <mxGeometry x="610" y="530" width="40" height="20" as="geometry"/>
                </mxCell>
                <mxCell id="213" value="(1, n)" style="text;html=1;strokeColor=none;fillColor=none;align=center;verticalAlign=middle;whiteSpace=wrap;rounded=0;labelBackgroundColor=none;" vertex="1" parent="1">
                    <mxGeometry x="620" y="650" width="40" height="20" as="geometry"/>
                </mxCell>
                <mxCell id="215" value="(1, n)" style="text;html=1;strokeColor=none;fillColor=none;align=center;verticalAlign=middle;whiteSpace=wrap;rounded=0;labelBackgroundColor=none;" vertex="1" parent="1">
                    <mxGeometry x="374" y="390" width="40" height="20" as="geometry"/>
                </mxCell>
                <mxCell id="216" value="(1, n)" style="text;html=1;strokeColor=none;fillColor=none;align=center;verticalAlign=middle;whiteSpace=wrap;rounded=0;labelBackgroundColor=none;" vertex="1" parent="1">
                    <mxGeometry x="460" y="450" width="40" height="20" as="geometry"/>
                </mxCell>
            </root>
        </mxGraphModel>
    </diagram>
</mxfile>